#N canvas 594 275 176 207 10;
#X obj 22 21 osc~ 440;
#X obj 22 170 dac~, f 9;
#X obj 109 21 r onOff;
#X obj 107 69 r xFade;
#X obj 22 148 *~ 0.5;
#X obj 73 148 *~ 0.5;
#X obj 55 103 1 - $f1;
#X obj 22 46 *~ 0, f 15;
#X connect 0 0 7 0;
#X connect 2 0 7 1;
#X connect 3 0 5 1;
#X connect 3 0 6 0;
#X connect 4 0 1 0;
#X connect 5 0 1 1;
#X connect 6 0 4 1;
#X connect 7 0 4 0;
#X connect 7 0 5 0;
